# xmcd
# 
# Track frame offsets:
#     150
#     44053
#     96025
#     127045
#     164425
# 
# Disc length: 2550
# 
# Revision: 1
# Processed by: cddbd v1.5.2PL0 Copyright (c) Steve Scherf et al.
# Submitted via: BonkEnc v1.0.8
# 
DISCID=4209f405
DTITLE=辛島文雄, Elvin Jones, Andy McCloud - Moon Flower
DYEAR=1978
DGENRE=Contemporary Jazz
TTITLE0=Moon Flower
TTITLE1=My Funny Valentine
TTITLE2=Friday Night
TTITLE3=Bitter Waltz
TTITLE4=Bessie's Blues
EXTD=YEAR: 1986
EXTT0=
EXTT1=
EXTT2=
EXTT3=
EXTT4=
PLAYORDER=
